<svg xmlns:xlink="http://www.w3.org/1999/xlink" xmlns="http://www.w3.org/2000/svg" width="24" height="24" fill="currentColor"><defs><symbol xmlns="http://www.w3.org/2000/svg" viewBox="0 0 24 24" id="collected-9adfc7c6"><path fill="#FACE15" d="M4 4.5a2 2 0 0 1 2-2h12a2 2 0 0 1 2 2v15.13a1 1 0 0 1-1.555.831l-6.167-4.12a.5.5 0 0 0-.556 0l-6.167 4.12A1 1 0 0 1 4 19.63V4.5Z"></path><path fill="black" fill-opacity="0.03" d="M4.032 4.144A1.894 1.894 0 0 0 4 4.5v15.13a1 1 0 0 0 1.555.831l6.167-4.12a.5.5 0 0 1 .41-.066l-.427-.198a1.489 1.489 0 0 0-1.377.063c-.581.339-1.45.85-2.25 1.339-.59.359-1.427.695-2.187.962-.929.325-1.86-.387-1.86-1.37V4.143Zm8.251 12.202 6.162 4.115A1 1 0 0 0 20 19.63V4.5a2 2 0 0 0-1.123-1.798c.21.254.334.58.33.936a117.008 117.008 0 0 1-.896 13.408c-.124.99-1.17 1.553-2.076 1.133l-3.952-1.833Z"></path></symbol></defs><use xlink:href="#collected-9adfc7c6" fill-opacity="0.9" fill="#FFFFFF"></use></svg>